<svg xmlns="http://www.w3.org/2000/svg" width="210" height="210" viewBox="0 0 96.75 62.37"><defs><style>.cls-1,.cls-3{fill:#231f20;}.cls-1{stroke:#231f20;stroke-miterlimit:10;}.cls-2{fill:#f1892b;}.cls-4{fill:#057f8c;}.cls-5{fill:#ef3f3e;}</style></defs><title>Logo 3almadmoon</title><g id="Layer_2" data-name="Layer 2"><g id="Layer_1-2" data-name="Layer 1"><path class="cls-1" d="M35.55,56.25h-2a7.1,7.1,0,0,1-1.39,1.89,6.19,6.19,0,0,1-4.3,1.65,8.09,8.09,0,0,1-1.08-.08,8.56,8.56,0,0,1-1.16-.24L26,57.76a7.61,7.61,0,0,0,1.84.25,4.62,4.62,0,0,0,3.22-1.21l.25-.26a3.07,3.07,0,0,0,.24-.29H31c-.24,0-.52,0-.83,0s-.6,0-.87-.06a5.27,5.27,0,0,1-1.76-.48,4,4,0,0,1-1.24-.9,3.35,3.35,0,0,1-.72-1.18,3.76,3.76,0,0,1-.24-1.32,4.14,4.14,0,0,1,.31-1.57,4.25,4.25,0,0,1,.87-1.38,4.39,4.39,0,0,1,1.39-1A4.25,4.25,0,0,1,29.79,48a4.29,4.29,0,0,1,3.3,1.43A4.61,4.61,0,0,1,34,50.93a5.19,5.19,0,0,1,.33,1.85,7.49,7.49,0,0,1-.19,1.69h1.41Zm-3.12-1.78a5.71,5.71,0,0,0,.18-.82,6.11,6.11,0,0,0,0-.86,3.52,3.52,0,0,0-.19-1.18,2.9,2.9,0,0,0-.56-1A2.63,2.63,0,0,0,31,50a2.94,2.94,0,0,0-1.21-.24,2.81,2.81,0,0,0-1.15.23,2.7,2.7,0,0,0-.87.58,2.38,2.38,0,0,0-.55.81,2.48,2.48,0,0,0-.19.92,2,2,0,0,0,.14.72,1.84,1.84,0,0,0,.44.64,2.49,2.49,0,0,0,.76.49,4.18,4.18,0,0,0,1.12.27l.33,0,.34,0h2.27Z"></path><path class="cls-1" d="M37.47,56.25H35.55V54.47h1.12a5.23,5.23,0,0,1-.1-1,4.57,4.57,0,0,1,.34-1.74,4.48,4.48,0,0,1,.9-1.41,4.27,4.27,0,0,1,1.35-1A4,4,0,0,1,40.81,49a3.82,3.82,0,0,1,1.65.35,4.17,4.17,0,0,1,1.36,1,4.44,4.44,0,0,1,.91,1.42,4.57,4.57,0,0,1,.33,1.74,4.07,4.07,0,0,1,0,.5c0,.16,0,.32-.07.47h1.17v1.78h-2a4.29,4.29,0,0,1-1.45,1.26,4,4,0,0,1-1.9.46,3.86,3.86,0,0,1-1.88-.47A4.84,4.84,0,0,1,37.47,56.25Zm3.34-5.43a2.65,2.65,0,0,0-1,.21,2.76,2.76,0,0,0-.85.57,2.52,2.52,0,0,0-.58.85,2.73,2.73,0,0,0,0,2.1A2.6,2.6,0,0,0,39.77,56a2.71,2.71,0,0,0,2.09,0,2.72,2.72,0,0,0,1.44-1.44,2.68,2.68,0,0,0,0-2.08A2.66,2.66,0,0,0,41.86,51,2.66,2.66,0,0,0,40.81,50.82Z"></path><path class="cls-1" d="M46.13,54.47h1.72l0-4.45h1.68l0,1.7a5.16,5.16,0,0,1,1.08-1.11A6.42,6.42,0,0,1,52,49.82a7.35,7.35,0,0,1,1.53-.48,8.35,8.35,0,0,1,1.57-.15,9.15,9.15,0,0,1,3.29.58,8.56,8.56,0,0,1,1.45.73,6.27,6.27,0,0,1,1.2,1,5.09,5.09,0,0,1,.86,1.32,5,5,0,0,1,.43,1.62h1.2v1.78H46.13Zm14.49,0a3.82,3.82,0,0,0-.43-1.16,4,4,0,0,0-.72-.9,4.85,4.85,0,0,0-.94-.67,6.94,6.94,0,0,0-1.09-.45A7.6,7.6,0,0,0,56.27,51,9.64,9.64,0,0,0,55.08,51a7,7,0,0,0-1.61.19,5.84,5.84,0,0,0-1.58.6,5.35,5.35,0,0,0-1.36,1.08,4.76,4.76,0,0,0-1,1.64ZM52.21,46a.85.85,0,0,1,.35.08.84.84,0,0,1,.29.2.92.92,0,0,1,.2.31,1.23,1.23,0,0,1,.07.39,1.16,1.16,0,0,1-.07.37.92.92,0,0,1-.2.31.86.86,0,0,1-.29.21.85.85,0,0,1-.35.08,1,1,0,0,1-.37-.08.86.86,0,0,1-.29-.21.89.89,0,0,1-.19-.31.94.94,0,0,1-.07-.37,1,1,0,0,1,.26-.7A.91.91,0,0,1,52.21,46Z"></path><path class="cls-1" d="M74.06,54.47h2.35V44.54h1.78V55.36a.87.87,0,0,1-.88.89H74.06Z"></path><path class="cls-1" d="M82.07,44.54v11.7H80.28V44.54Z"></path><path class="cls-1" d="M91.67,54.46h4.58v1.78H87.31a2.2,2.2,0,0,0-.76.12,1.58,1.58,0,0,0-.53.29,1.17,1.17,0,0,0-.3.41,1.11,1.11,0,0,0-.11.46,1.13,1.13,0,0,0,.11.48,1.09,1.09,0,0,0,.3.41,1.42,1.42,0,0,0,.53.29,2.49,2.49,0,0,0,.76.11h8.94v1.79H87.31a4,4,0,0,1-1.51-.27,3.23,3.23,0,0,1-1.09-.69,2.69,2.69,0,0,1-.66-1,3,3,0,0,1-.22-1.13,2.85,2.85,0,0,1,.22-1.11,2.93,2.93,0,0,1,.64-1,3.37,3.37,0,0,1,1.06-.7,4.08,4.08,0,0,1,1.46-.28,3.38,3.38,0,0,1-.56-1.06,3.67,3.67,0,0,1-.19-1.17,3.88,3.88,0,0,1,.33-1.54,4.44,4.44,0,0,1,.95-1.37,4.67,4.67,0,0,1,1.5-1,5.38,5.38,0,0,1,3.87,0,5,5,0,0,1,1.54,1,4.69,4.69,0,0,1,1,1.42,4.17,4.17,0,0,1,.38,1.75H94.29a2.38,2.38,0,0,0-.24-1,2.71,2.71,0,0,0-.66-.85,3,3,0,0,0-1-.58,3.15,3.15,0,0,0-1.19-.22A3.39,3.39,0,0,0,90,50a3,3,0,0,0-.94.58,2.59,2.59,0,0,0-.6.81,2.32,2.32,0,0,0-.2.93,1.8,1.8,0,0,0,.62,1.36,2.59,2.59,0,0,0,.82.49,4.71,4.71,0,0,0,1.21.27l.38,0Z"></path><circle class="cls-2" cx="40.82" cy="53.51" r="2.04"></circle><path class="cls-1" d="M65.43,56.25H63.51V54.47h1.11a5.23,5.23,0,0,1-.09-1,4.57,4.57,0,0,1,.33-1.74,4.69,4.69,0,0,1,.91-1.41,4.06,4.06,0,0,1,1.35-1A4,4,0,0,1,68.77,49a3.88,3.88,0,0,1,1.65.35,4.17,4.17,0,0,1,1.36,1,4.44,4.44,0,0,1,.91,1.42A4.57,4.57,0,0,1,73,53.5a4.07,4.07,0,0,1,0,.5c0,.16,0,.32-.07.47h1.17v1.78h-2a4.23,4.23,0,0,1-1.46,1.26,3.94,3.94,0,0,1-1.89.46,3.83,3.83,0,0,1-1.88-.47A4.72,4.72,0,0,1,65.43,56.25Zm3.34-5.43a2.61,2.61,0,0,0-1,.21,2.81,2.81,0,0,0-.86.57,2.65,2.65,0,0,0-.57.85,2.62,2.62,0,0,0,0,2.1,2.81,2.81,0,0,0,.57.86,2.76,2.76,0,0,0,.85.57,2.73,2.73,0,0,0,2.1,0,2.83,2.83,0,0,0,.86-.58,3,3,0,0,0,.58-.86,2.68,2.68,0,0,0,0-2.08,3,3,0,0,0-.58-.86,2.93,2.93,0,0,0-.86-.57A2.66,2.66,0,0,0,68.77,50.82Z"></path><circle class="cls-2" cx="68.78" cy="53.5" r="2.04"></circle><path class="cls-3" d="M39.77,45.46a1.11,1.11,0,0,1-.58-1.12,1.54,1.54,0,0,1,.43-1.12,1.38,1.38,0,0,1,1.05-.45,1.45,1.45,0,0,1,1,.41,1.59,1.59,0,0,1,.42,1.16q0,1.29-1.44,1.53l-2.6.38L37.64,46Zm.86-.3a.91.91,0,0,0,.7-.95c0-.67-.3-1-.81-1a1,1,0,0,0-1,1.11.8.8,0,0,0,.9.87Z"></path><path class="cls-3" d="M52.29,43.43a1.56,1.56,0,0,1,0-2.19,1.52,1.52,0,0,1,1.1-.43,1.51,1.51,0,0,1,1.1.43,1.56,1.56,0,0,1,0,2.19,1.51,1.51,0,0,1-1.1.43A1.52,1.52,0,0,1,52.29,43.43Zm2.07-1.11a.92.92,0,0,0-.27-.65,1,1,0,0,0-.7-.3.94.94,0,0,0-.68.3.91.91,0,0,0-.29.65,1,1,0,0,0,.29.7.94.94,0,0,0,.68.27A.86.86,0,0,0,54.36,42.32Z"></path><path class="cls-3" d="M69.73,42.73q.15,0,.15.21a1.29,1.29,0,0,1-.29.65l-3.75.71L65.27,44Z"></path><path class="cls-3" d="M93.1,43.41c.11,0,.16.07.16.21a1.29,1.29,0,0,1-.29.65l-3.75.7-.57-.25Z"></path><path class="cls-4" d="M36.64.87A16.86,16.86,0,0,0,25.12,17V41.81s34-3.79,34-24.82h0A17,17,0,0,0,36.64.87ZM49,23.92c0,13.85-22.53,16.34-22.53,16.34V23.92A11.26,11.26,0,0,1,37.69,12.73h0A11.27,11.27,0,0,1,49,23.92Z"></path><circle class="cls-2" cx="13.66" cy="47.7" r="3.5"></circle><path class="cls-2" d="M0,50.55H0a11.82,11.82,0,0,0,23.63,0V33.29S0,35.92,0,50.55ZM22.39,47h0A8.38,8.38,0,0,1,14,55.37h0A8.38,8.38,0,0,1,5.68,47h0c0-10.35,16.71-12.21,16.71-12.21Z"></path><path class="cls-5" d="M15.59,14.36h0a7.69,7.69,0,0,0-3,15.07l11,2.21S24.92,16.24,15.59,14.36ZM22.41,30.3l-7.32-1.47a5.15,5.15,0,0,1,2-10.09h0C23.32,20,22.41,30.3,22.41,30.3Z"></path></g></g></svg>